<?xml version="1.0" encoding="UTF-8" standalone="no"?>
<!-- Created with Inkscape (http://www.inkscape.org/) -->

<svg
   xmlns:dc="http://purl.org/dc/elements/1.1/"
   xmlns:cc="http://creativecommons.org/ns#"
   xmlns:rdf="http://www.w3.org/1999/02/22-rdf-syntax-ns#"
   xmlns:svg="http://www.w3.org/2000/svg"
   xmlns="http://www.w3.org/2000/svg"
   xmlns:sodipodi="http://sodipodi.sourceforge.net/DTD/sodipodi-0.dtd"
   xmlns:inkscape="http://www.inkscape.org/namespaces/inkscape"
   width="106.272mm"
   height="107.31786mm"
   viewBox="0 0 106.272 107.31786"
   version="1.1"
   id="svg8"
   inkscape:version="0.92.4 (5da689c313, 2019-01-14)"
   sodipodi:docname="Radiohead_Modified_Bear.svg"
   inkscape:export-filename="C:\Users\tjdru\OneDrive\Pictures\Logos\Music\radioheadmodifiedbear.png"
   inkscape:export-xdpi="236.68008"
   inkscape:export-ydpi="236.68008">
  <defs
     id="defs2" />
  <sodipodi:namedview
     id="base"
     pagecolor="#ffffff"
     bordercolor="#666666"
     borderopacity="1.0"
     inkscape:pageopacity="0.0"
     inkscape:pageshadow="2"
     inkscape:zoom="1"
     inkscape:cx="162.45168"
     inkscape:cy="191.89511"
     inkscape:document-units="mm"
     inkscape:current-layer="layer2"
     showgrid="false"
     inkscape:snap-global="false"
     inkscape:window-width="1366"
     inkscape:window-height="705"
     inkscape:window-x="-8"
     inkscape:window-y="-8"
     inkscape:window-maximized="1" />
  <metadata
     id="metadata5">
    <rdf:RDF>
      <cc:Work
         rdf:about="">
        <dc:format>image/svg+xml</dc:format>
        <dc:type
           rdf:resource="http://purl.org/dc/dcmitype/StillImage" />
        <dc:title />
      </cc:Work>
    </rdf:RDF>
  </metadata>
  <g
     inkscape:groupmode="layer"
     id="layer2"
     inkscape:label="Layer 1"
     style="display:inline;opacity:1"
     transform="translate(-51.622227,-80.87416)">
    <path
       style="opacity:1;fill:#000000;fill-opacity:1;stroke:none;stroke-width:0.97427261;stroke-linecap:butt;stroke-linejoin:miter;stroke-miterlimit:4;stroke-dasharray:none;stroke-opacity:1;paint-order:markers stroke fill"
       d="m 132.97756,80.874221 c -11.50404,-3e-5 -21.18481,7.797247 -24.05172,18.394494 -0.0183,0.04645 -0.0224,0.09012 -0.0338,0.135727 -1.35608,-0.135819 -2.71769,-0.209926 -4.08058,-0.222096 -1.40033,0.0041 -2.79968,0.07403 -4.19345,0.208829 -0.0111,-0.04409 -0.0235,-0.08776 -0.038,-0.130939 C 97.699402,88.683042 88.028681,80.904944 76.538875,80.904973 62.77778,80.90494 51.622194,92.060522 51.622227,105.82162 c 7.9e-5,8.86288 4.629919,16.64144 11.600583,21.05844 -1.950075,5.37538 -3.115544,11.65195 -3.15384,16.80713 -3.2e-5,24.57941 20.031761,44.50495 44.74216,44.50483 24.7103,-3e-5 44.74192,-19.92553 44.74189,-44.50483 -0.0202,-4.89572 -0.85241,-9.75458 -2.46301,-14.3808 -0.23888,-0.8216 -0.52599,-1.62839 -0.85987,-2.41618 0.0484,-0.0277 0.0956,-0.0601 0.13855,-0.0881 6.92898,-4.42516 11.52546,-12.18013 11.52553,-21.01131 4e-5,-13.761093 -11.15555,-24.916676 -24.91666,-24.91664 z m 0,3.302558 c 11.93715,-3.1e-5 21.61412,9.676933 21.61408,21.614081 -5e-5,7.54405 -3.86607,14.18406 -9.72396,18.0505 2.8e-4,4.4e-4 5.8e-4,8.7e-4 8.7e-4,9.7e-4 -0.0195,0.007 -0.038,0.0149 -0.0572,0.0224 -0.71224,-1.42597 -1.5009,-2.8129 -2.36257,-4.1548 0.0377,-0.0254 0.0744,-0.0524 0.11005,-0.081 4.08836,-2.91389 6.75578,-7.69439 6.75582,-13.09962 2e-5,-8.877714 -7.19241,-16.074576 -16.06467,-16.074556 -6.99361,-1.6e-5 -12.94254,4.472329 -15.14866,10.714196 -0.35376,1.04238 -0.80134,2.09742 -1.03252,3.06613 6.97146,2.15721 13.2477,6.10508 18.19553,11.44536 -2.83426,-1.30486 -5.91603,-1.9849 -9.03625,-1.99401 -10.27874,0.0122 -19.147,7.21539 -21.26614,17.27333 -2.0711,-9.9797 -10.912715,-17.47956 -21.506559,-17.4796 -3.073284,-4e-5 -5.998523,0.63217 -8.65444,1.77191 5.019493,-5.25824 11.342468,-9.10905 18.332975,-11.16515 -0.224609,-0.99344 -0.479816,-2.05389 -0.903599,-3.07991 -0.0045,-0.008 -0.0077,-0.0171 -0.01242,-0.0254 4.33e-4,-1e-4 7.22e-4,-1.3e-4 0.0012,-2.9e-4 -2.236472,-6.419257 -8.330183,-11.024908 -15.498016,-11.024899 -9.064226,-9e-6 -16.412075,7.364361 -16.412054,16.448739 4.9e-5,5.48524 2.679954,10.34203 6.798144,13.33045 -0.864066,1.35558 -1.653776,2.75668 -2.365665,4.19712 -5.909954,-3.85738 -9.816795,-10.52764 -9.81686,-18.11148 -2.9e-5,-11.937146 9.67693,-21.614107 21.614086,-21.614078 9.792469,-2.6e-5 18.062046,6.512871 20.718109,15.442709 0.363801,1.132179 0.590195,2.342579 0.814973,3.305949 2.227256,-0.36957 4.481116,-0.55777 6.739156,-0.56271 2.22317,0.0165 4.44142,0.21063 6.63333,0.58048 l 0.76307,-3.19194 h 0.005 c 4.3e-4,-0.0021 2.9e-4,-0.0031 8.6e-4,-0.0051 2.6051,-9.010829 10.91517,-15.600198 20.76522,-15.600173 z m -56.292517,9.141796 c 5.703089,-1.6e-5 10.555706,3.638528 12.365339,8.720475 4.33e-4,-1.5e-4 8.68e-4,-4.3e-4 0.0014,-5.8e-4 0.0025,0.0167 0.0068,0.0328 0.0095,0.0494 -7.973456,3.0058 -14.917391,8.21536 -20.014026,15.01519 l -0.06858,-0.0396 C 65.696492,114.67819 63.561717,110.8097 63.561679,106.44185 63.56166,99.194147 69.437301,93.31851 76.685,93.318528 Z m 56.529277,0.421885 c 7.09419,-7e-6 12.84538,5.741954 12.84536,12.82475 -4e-5,4.29803 -2.11823,8.1017 -5.36882,10.42863 -0.0337,0.0208 -0.0642,0.0452 -0.096,0.0683 -4.97932,-6.64584 -11.72546,-11.77651 -19.47841,-14.81398 0.002,-0.008 0.006,-0.0162 0.008,-0.0245 1.7822,-4.94609 6.52214,-8.483156 12.08992,-8.483152 z m -47.491613,23.19947 c 9.353138,1.14493 16.385093,9.08329 16.393143,18.50625 -0.008,9.26966 -6.821658,17.12724 -15.996373,18.45065 l 0.01976,-0.13997 c 0.600347,-4.5376 0.965114,-10.51078 0.965114,-17.05519 0,-7.94457 -0.537541,-15.04703 -1.381641,-19.76174 z m -4.907136,0.0526 c -0.839314,4.71484 -1.444163,12.85176 -1.373738,19.70925 0.07043,6.8575 0.287126,11.7956 0.976121,17.13447 -9.00371,-1.48538 -15.612442,-9.26456 -15.62303,-18.38997 -0.05448,-3.40477 1.198662,-6.58165 2.540344,-9.38054 2.792181,-4.78219 7.662346,-8.24181 13.480303,-9.07321 z m 42.815319,0.17128 c -0.61992,4.829 -1.00012,11.31279 -1.00012,18.44813 0,6.96711 0.36221,13.31589 0.95638,18.10693 -9.08592,-1.31165 -15.83261,-9.09249 -15.844,-18.27259 0.0102,-9.19824 6.78074,-16.98998 15.88774,-18.28247 z m 5.41651,0.0366 c 9.00514,1.38966 15.65452,9.13403 15.66592,18.24577 -0.006,9.09991 -6.63392,16.84189 -15.62417,18.2503 0.59246,-4.78833 0.95327,-11.12874 0.95327,-18.08464 0,-7.11681 -0.37798,-13.58639 -0.99502,-18.41143 z m -24.0935,22.76997 c 1.26235,5.90493 4.92166,11.01979 10.1027,14.12117 H 95.070225 c 4.989675,-3.11478 8.638725,-8.17564 9.883675,-14.12117 z m 41.36795,3.77835 c -0.0215,3.49216 -0.48836,6.96752 -1.38926,10.34282 h -7.53779 c 4.00894,-2.39977 7.13898,-6.0262 8.92705,-10.34282 z m -83.00564,0.47719 c 1.78432,4.08701 4.775788,7.52558 8.524346,9.86563 h -7.175441 c -0.848015,-3.2224 -1.300943,-6.53501 -1.348905,-9.86563 z m 2.389933,13.19049 h 10.259579 l -5.450367,9.46857 c -2.005672,-2.93739 -3.622078,-6.11983 -4.809212,-9.46857 z m 15.98142,0 h 12.532965 l -6.498732,19.1615 z m 16.646277,0 h 12.94949 l -6.75921,23.42834 z m 17.45761,0 h 12.54423 l -6.36185,20.01883 z m 17.71184,0 h 10.40745 c -1.10746,3.13697 -2.59174,6.12943 -4.42062,8.91237 z m -54.735909,1.79731 6.591008,20.92863 c -4.876786,-2.57664 -9.187774,-6.09517 -12.680552,-10.3496 z m 52.309859,0.55339 6.32772,9.42005 c -3.47007,4.38858 -7.79885,8.03162 -12.72458,10.70883 z m -17.5081,1.72084 6.37625,20.64615 c -4.19755,1.62833 -8.63358,2.5661 -13.13405,2.77655 z m -17.432208,0.62931 6.006018,22.73102 c -4.37407,-0.27607 -8.676594,-1.23938 -12.747722,-2.85414 z"
       id="path22"
       inkscape:connector-curvature="0"
       sodipodi:nodetypes="ccccccccccccccccccccccccccccccccccccccccccccccccccccccccccccccccccccccccccccccccccccccccccccccccccccccccccccccccccccccccccccccccccccccccccccc" />
  </g>
</svg>
